GIL03_xfast2_ik
nRows=3
nColumns=375

# SIMM Motion File Header:
name GIL03_xfast2_ik
datacolumns 375
datarows 3
otherdata 1
range 0.56667000 0.58333000
endheader
time	pelvis_tx	pelvis_ty	pelvis_tz	pelvis_tilt	pelvis_list	pelvis_rotation	hip_flexion_r	hip_adduction_r	hip_rotation_r	knee_angle_r	ankle_angle_r	hip_flexion_l	hip_adduction_l	hip_rotation_l	knee_angle_l	ankle_angle_l	lumbar_extension	lumbar_bending	lumbar_rotation	subtalar_angle_r	mtp_angle_r	subtalar_angle_l	mtp_angle_l	asis_r_px	asis_r_py	asis_r_pz	asis_l_px	asis_l_py	asis_l_pz	midasis_px	midasis_py	midasis_pz	psis_r_px	psis_r_py	psis_r_pz	psis_l_px	psis_l_py	psis_l_pz	hip_r_px	hip_r_py	hip_r_pz	hip_l_px	hip_l_py	hip_l_pz	midhip_px	midhip_py	midhip_pz	epicondLat_r_px	epicondLat_r_py	epicondLat_r_pz	epicondMed_r_px	epicondMed_r_py	epicondMed_r_pz	thighwand_r_px	thighwand_r_py	thighwand_r_pz	upperleg1_r_px	upperleg1_r_py	upperleg1_r_pz	upperleg2_r_px	upperleg2_r_py	upperleg2_r_pz	malleolusLat_r_px	malleolusLat_r_py	malleolusLat_r_pz	malleolusMedv_r_px	malleolusMedv_r_py	malleolusMedv_r_pz	shankwand_r_px	shankwand_r_py	shankwand_r_pz	lowerleg1_r_px	lowerleg1_r_py	lowerleg1_r_pz	knee_r_px	knee_r_py	knee_r_pz	ankle_r_px	ankle_r_py	ankle_r_pz	toe_r_px	toe_r_py	toe_r_pz	epicondLat_l_px	epicondLat_l_py	epicondLat_l_pz	epicondMed_l_px	epicondMed_l_py	epicondMed_l_pz	thighwand_l_px	thighwand_l_py	thighwand_l_pz	upperleg1_l_px	upperleg1_l_py	upperleg1_l_pz	upperleg2_l_px	upperleg2_l_py	upperleg2_l_pz	malleolusLat_l_px	malleolusLat_l_py	malleolusLat_l_pz	malleolusMedv_l_px	malleolusMedv_l_py	malleolusMedv_l_pz	shankwand_l_px	shankwand_l_py	shankwand_l_pz	lowerleg1_l_px	lowerleg1_l_py	lowerleg1_l_pz	knee_l_px	knee_l_py	knee_l_pz	ankle_l_px	ankle_l_py	ankle_l_pz	toe_l_px	toe_l_py	toe_l_pz	subclavicle_r_px	subclavicle_r_py	subclavicle_r_pz	subclavicle_l_px	subclavicle_l_py	subclavicle_l_pz	neck_px	neck_py	neck_pz	sternalnotch_px	sternalnotch_py	sternalnotch_pz	xyphoidprocess_px	xyphoidprocess_py	xyphoidprocess_pz	midhip_tx	midhip_ty	midhip_tz	hip_r_tx	hip_r_ty	hip_r_tz	hip_l_tx	hip_l_ty	hip_l_tz	knee_r_tx	knee_r_ty	knee_r_tz	knee_l_tx	knee_l_ty	knee_l_tz	ankle_r_tx	ankle_r_ty	ankle_r_tz	ankle_l_tx	ankle_l_ty	ankle_l_tz	midasis_tx	midasis_ty	midasis_tz	asis_r_tx	asis_r_ty	asis_r_tz	asis_l_tx	asis_l_ty	asis_l_tz	psis_r_tx	psis_r_ty	psis_r_tz	psis_l_tx	psis_l_ty	psis_l_tz	epicondLat_r_tx	epicondLat_r_ty	epicondLat_r_tz	epicondLat_l_tx	epicondLat_l_ty	epicondLat_l_tz	epicondMed_r_tx	epicondMed_r_ty	epicondMed_r_tz	epicondMed_l_tx	epicondMed_l_ty	epicondMed_l_tz	malleolusLat_r_tx	malleolusLat_r_ty	malleolusLat_r_tz	malleolusLat_l_tx	malleolusLat_l_ty	malleolusLat_l_tz	malleolusMedv_r_tx	malleolusMedv_r_ty	malleolusMedv_r_tz	malleolusMedv_l_tx	malleolusMedv_l_ty	malleolusMedv_l_tz	neck_tx	neck_ty	neck_tz	subclavicle_r_tx	subclavicle_r_ty	subclavicle_r_tz	subclavicle_l_tx	subclavicle_l_ty	subclavicle_l_tz	sternalnotch_tx	sternalnotch_ty	sternalnotch_tz	xyphoidprocess_tx	xyphoidprocess_ty	xyphoidprocess_tz	thighwand_r_tx	thighwand_r_ty	thighwand_r_tz	thighwand_l_tx	thighwand_l_ty	thighwand_l_tz	upperleg1_r_tx	upperleg1_r_ty	upperleg1_r_tz	upperleg1_l_tx	upperleg1_l_ty	upperleg1_l_tz	upperleg2_r_tx	upperleg2_r_ty	upperleg2_r_tz	upperleg2_l_tx	upperleg2_l_ty	upperleg2_l_tz	shankwand_r_tx	shankwand_r_ty	shankwand_r_tz	shankwand_l_tx	shankwand_l_ty	shankwand_l_tz	lowerleg1_r_tx	lowerleg1_r_ty	lowerleg1_r_tz	lowerleg1_l_tx	lowerleg1_l_ty	lowerleg1_l_tz	toe_r_tx	toe_r_ty	toe_r_tz	toe_l_tx	toe_l_ty	toe_l_tz	ground_force_vx	ground_force_vy	ground_force_vz	ground_force_px	ground_force_py	ground_force_pz	ground_force_vx	ground_force_vy	ground_force_vz	ground_force_px	ground_force_py	ground_force_pz	ground_torque_x	ground_torque_y	ground_torque_z	ground_torque_x	ground_torque_y	ground_torque_z	ground_marker_px	ground_marker_py	ground_marker_pz	ground_marker_px	ground_marker_py	ground_marker_pz	ground_marker_px	ground_marker_py	ground_marker_pz	ground_marker_px	ground_marker_py	ground_marker_pz	ground_marker_px	ground_marker_py	ground_marker_pz	ground_marker_px	ground_marker_py	ground_marker_pz	ground_marker_px	ground_marker_py	ground_marker_pz	ground_marker_px	ground_marker_py	ground_marker_pz	ground_marker_px	ground_marker_py	ground_marker_pz	ground_marker_px	ground_marker_py	ground_marker_pz	ground_marker_px	ground_marker_py	ground_marker_pz	ground_marker_px	ground_marker_py	ground_marker_pz	ground_marker_px	ground_marker_py	ground_marker_pz	ground_marker_px	ground_marker_py	ground_marker_pz	ground_marker_px	ground_marker_py	ground_marker_pz	ground_marker_px	ground_marker_py	ground_marker_pz	ground_marker_px	ground_marker_py	ground_marker_pz	ground_marker_px	ground_marker_py	ground_marker_pz	ground_marker_px	ground_marker_py	ground_marker_pz	ground_marker_px	ground_marker_py	ground_marker_pz	ground_marker_px	ground_marker_py	ground_marker_pz	ground_marker_px	ground_marker_py	ground_marker_pz	ground_marker_px	ground_marker_py	ground_marker_pz	ground_marker_px	ground_marker_py	ground_marker_pz	ground_marker_px	ground_marker_py	ground_marker_pz	ground_marker_px	ground_marker_py	ground_marker_pz	ground_marker_px	ground_marker_py	ground_marker_pz	ground_marker_px	ground_marker_py	ground_marker_pz	ground_marker_px	ground_marker_py	ground_marker_pz	ground_marker_px	ground_marker_py	ground_marker_pz	ground_marker_px	ground_marker_py	ground_marker_pz	ground_marker_px	ground_marker_py	ground_marker_pz	ground_marker_px	ground_marker_py	ground_marker_pz	ground_marker_px	ground_marker_py	ground_marker_pz	ground_marker_px	ground_marker_py	ground_marker_pz	ground_marker_px	ground_marker_py	ground_marker_pz	ground_marker_px	ground_marker_py	ground_marker_pz
      0.56667000	      1.53508456	      0.88417684	     -0.21513197	     -3.67799211	     -4.31821019	    -11.12915580	     -7.01596881	      7.51458170	      2.79024851	      3.60676112	      3.73459046	     28.49866678	     -9.45402749	     -2.07989928	    -56.81573422	     14.52241773	     -6.31835330	      2.69714295	     22.17180984	      0.00000000	      0.00000000	      0.00000000	      0.00000000	      1.56583890	      0.89317472	     -0.11517047	      1.58563439	      0.87069766	     -0.31464302	      1.54589879	      0.88364237	     -0.21300827	      1.42712239	      0.94488712	     -0.21195380	      1.43226548	      0.93949999	     -0.26635268	      1.46477603	      0.84070252	     -0.15754667	      1.48950474	      0.82936906	     -0.28632158	      1.47714038	      0.83503579	     -0.22193413	      1.42026946	      0.44795015	     -0.12209302	      1.41011498	      0.45168031	     -0.23109463	      1.58801860	      0.58956945	     -0.15974813	      1.52118543	      0.65204020	     -0.11647998	      1.49496204	      0.57025487	     -0.12162389	      1.34336197	      0.06033609	     -0.17860597	      1.38825068	      0.07445184	     -0.23504200	      1.34141544	      0.17713592	     -0.09808470	      1.35423726	      0.18579821	     -0.13750049	      1.40165524	      0.47352275	     -0.18707948	      1.36355366	      0.07717484	     -0.21398961	      1.46229143	      0.03233871	     -0.14679711	      1.67827252	      0.49215813	     -0.34704513	      1.66088964	      0.46920015	     -0.24159560	      1.71663931	      0.68918471	     -0.26470837	      1.63900921	      0.70146703	     -0.32833969	      1.67489495	      0.62118517	     -0.32313334	      1.44570964	      0.13769091	     -0.36487045	      1.47060639	      0.13046560	     -0.30205564	      1.46974014	      0.26406955	     -0.41358087	      1.48633664	      0.25740315	     -0.37418423	      1.65974728	      0.48705135	     -0.28781768	      1.45602391	      0.14552356	     -0.32133040	      1.55819321	      0.07538185	     -0.37324291	      1.55795903	      1.27976614	     -0.18859096	      1.54040968	      1.27928394	     -0.29638613	      1.44747956	      1.32990573	     -0.22174713	      1.53292834	      1.28799852	     -0.24516567	      1.61497692	      1.13369779	     -0.25657059	      1.48337900	      0.84236500	     -0.22869200	      1.47522200	      0.83028900	     -0.17052600	      1.48532900	      0.81692800	     -0.28679700	      1.41142300	      0.46285100	     -0.18889800	      1.65086900	      0.47285700	     -0.28935300	      1.36921000	      0.06993500	     -0.21787200	      1.44962100	      0.13979300	     -0.29686200	      1.54682200	      0.89811700	     -0.22541800	      1.52973200	      0.90910800	     -0.12725700	      1.56391300	      0.88712500	     -0.32357900	      1.39120800	      0.94276400	     -0.23546400	      1.40220300	      0.93404200	     -0.28834800	      1.41458600	      0.45956100	     -0.13408800	      1.66669600	      0.48085400	     -0.34088700	      1.40003000	      0.46297100	     -0.23238600	      1.65285400	      0.45852700	     -0.24662700	      1.35398400	      0.06896400	     -0.18252500	      1.45810300	      0.13550900	     -0.33417100	      1.38889900	      0.08254200	     -0.24344500	      1.46989600	      0.14284000	     -0.26801900	      1.45627500	      1.34603100	     -0.22487700	      1.54498200	      1.25660300	     -0.18571200	      1.54584300	      1.26252100	     -0.28875400	      1.53227600	      1.27220100	     -0.24173900	      1.56210600	      1.10013600	     -0.25038800	      1.57524400	      0.61142400	     -0.16836500	      1.70294100	      0.67982900	     -0.24856900	      1.50276900	      0.67053300	     -0.12314400	      1.63764400	      0.69393300	     -0.32411300	      1.48064500	      0.58761900	     -0.12685400	      1.67456700	      0.61507100	     -0.31678700	      1.35047000	      0.18302800	     -0.10338200	      1.49767500	      0.25000900	     -0.39900400	      1.35889800	      0.19269000	     -0.14223900	      1.50528900	      0.24946200	     -0.35689100	      1.47353300	      0.03944500	     -0.16769600	      1.56001100	      0.07767300	     -0.30428400	     11.09444589	    237.47752982	    -36.17907968	      1.48302100	      0.00000000	     -0.16424551	      0.00000000	      0.00000000	      0.00000000	      0.89698407	      0.00000000	     -0.27609729	      0.00000000	      1.61325464	      0.00000000	      0.00000000	      0.00000000	      0.00000000	      1.48337877	      0.84236473	     -0.22869200	      1.47522163	      0.83028948	     -0.17052588	      1.48532856	      0.81692827	     -0.28679690	      1.41142261	      0.46285123	     -0.18889804	      1.65086925	      0.47285715	     -0.28935274	      1.36921036	      0.06993454	     -0.21787217	      1.44962060	      0.13979313	     -0.29686245	      1.54682231	      0.89811671	     -0.22541831	      1.52973223	      0.90910822	     -0.12725738	      1.56391251	      0.88712519	     -0.32357925	      1.39120758	      0.94276434	     -0.23546387	      1.40220332	      0.93404192	     -0.28834841	      1.41458595	      0.45956141	     -0.13408774	      1.66669559	      0.48085436	     -0.34088743	      1.40003002	      0.46297055	     -0.23238610	      1.65285420	      0.45852655	     -0.24662688	      1.35398352	      0.06896383	     -0.18252462	      1.45810282	      0.13550907	     -0.33417127	      1.38889945	      0.08254226	     -0.24344462	      1.46989608	      0.14283969	     -0.26801869	      1.45627451	      1.34603071	     -0.22487670	      1.54498231	      1.25660264	     -0.18571173	      1.54584289	      1.26252091	     -0.28875369	      1.53227568	      1.27220082	     -0.24173865	      1.56210589	      1.10013628	     -0.25038785	      1.57524431	      0.61142391	     -0.16836542	      1.70294094	      0.67982900	     -0.24856862	      1.50276911	      0.67053300	     -0.12314408	      1.63764441	      0.69393265	     -0.32411340	      1.48064470	      0.58761883	     -0.12685387	      1.67456698	      0.61507064	     -0.31678712	      1.35046959	      0.18302804	     -0.10338157	      1.49767506	      0.25000852	     -0.39900404	      1.35889840	      0.19268979	     -0.14223887	      1.50528884	      0.24946183	     -0.35689116	      1.47353327	      0.03944550	     -0.16769625	      1.56001067	      0.07767290	     -0.30428421
      0.57500000	      1.54971422	      0.88303136	     -0.21295640	     -3.65995240	     -3.99125586	    -12.13800364	     -8.47855886	      7.04717440	      2.97318482	      4.38545336	      3.81463706	     29.26776192	     -9.44361858	     -1.64222517	    -53.77621024	     14.25807350	     -6.61980203	      2.12356860	     22.45073840	      0.00000000	      0.00000000	      0.00000000	      0.00000000	      1.57866100	      0.89161849	     -0.11242065	      1.60205773	      0.87008691	     -0.31160740	      1.56048958	      0.88250393	     -0.21064200	      1.44161357	      0.94355907	     -0.21143395	      1.44773760	      0.93842938	     -0.26575607	      1.47845797	      0.83918459	     -0.15683705	      1.50550445	      0.82847998	     -0.28519917	      1.49198121	      0.83383229	     -0.22101811	      1.42369202	      0.44758386	     -0.12304689	      1.41531647	      0.45179373	     -0.23218215	      1.59545969	      0.58507610	     -0.15776664	      1.52953509	      0.64909489	     -0.11537628	      1.50137587	      0.56799638	     -0.12112578	      1.34354028	      0.06130914	     -0.18074204	      1.38948949	      0.07490395	     -0.23644777	      1.34163310	      0.17813385	     -0.10025594	      1.35518552	      0.18664407	     -0.13945984	      1.40667916	      0.47380179	     -0.18825331	      1.36448969	      0.07791161	     -0.21579529	      1.46165464	      0.03211395	     -0.14697810	      1.70059969	      0.49438938	     -0.34310552	      1.68106741	      0.47061847	     -0.23821381	      1.73410347	      0.69151357	     -0.25890115	      1.65782772	      0.70300008	     -0.32429459	      1.69475830	      0.62322411	     -0.31863818	      1.49230313	      0.12632146	     -0.36674618	      1.51596822	      0.12073197	     -0.30329167	      1.50904227	      0.25407567	     -0.41491663	      1.52500747	      0.24850619	     -0.37509110	      1.68022689	      0.48923189	     -0.28438940	      1.50091714	      0.13479130	     -0.32295656	      1.60862986	      0.07122545	     -0.37205530	      1.57415076	      1.27819842	     -0.18732682	      1.55788502	      1.27746145	     -0.29532170	      1.46436144	      1.32885248	     -0.22196056	      1.54984342	      1.28638633	     -0.24422248	      1.63114273	      1.13158772	     -0.25415084	      1.49841900	      0.84130300	     -0.22938500	      1.48906100	      0.82903800	     -0.17057800	      1.50133400	      0.81607300	     -0.28668600	      1.41650700	      0.46334800	     -0.19023600	      1.67211700	      0.47456200	     -0.28747400	      1.37036500	      0.07095600	     -0.21964700	      1.49369800	      0.12822600	     -0.29546500	      1.56153500	      0.89717100	     -0.22392300	      1.54262100	      0.90781200	     -0.12606600	      1.58045000	      0.88653000	     -0.32178100	      1.40620600	      0.94165100	     -0.23725300	      1.41794800	      0.93287500	     -0.29010600	      1.41868200	      0.45996800	     -0.13538300	      1.68902700	      0.48313600	     -0.33856900	      1.40596600	      0.46403500	     -0.23468200	      1.67362500	      0.45942700	     -0.24622300	      1.35450400	      0.07019200	     -0.18457400	      1.50307300	      0.12425400	     -0.33259400	      1.39018100	      0.08336600	     -0.24530500	      1.51357500	      0.13228200	     -0.26662000	      1.47276000	      1.34510900	     -0.22471400	      1.56171100	      1.25554900	     -0.18504700	      1.56305600	      1.26076900	     -0.28790800	      1.54925000	      1.27096000	     -0.24113100	      1.57913100	      1.09864900	     -0.24848900	      1.58362200	      0.60829600	     -0.16688700	      1.71932800	      0.68155700	     -0.24445500	      1.51127400	      0.66899500	     -0.12290100	      1.65604000	      0.69527100	     -0.32168600	      1.48729100	      0.58653100	     -0.12725800	      1.69422400	      0.61716000	     -0.31413300	      1.35085600	      0.18438500	     -0.10549800	      1.53562400	      0.24019700	     -0.39805800	      1.36021700	      0.19377900	     -0.14437300	      1.54376700	      0.23999000	     -0.35573600	      1.47380500	      0.03948700	     -0.16811600	      1.60802100	      0.07306900	     -0.30074500	     10.66687142	    265.95794766	    -34.55501536	      1.48648425	      0.00000000	     -0.16604532	      0.00000000	      0.00000000	      0.00000000	      0.91004565	      0.00000000	     -0.27712375	      0.00000000	      2.04276416	      0.00000000	      0.00000000	      0.00000000	      0.00000000	      1.49841857	      0.84130251	     -0.22938503	      1.48906112	      0.82903790	     -0.17057846	      1.50133359	      0.81607270	     -0.28668582	      1.41650689	      0.46334800	     -0.19023617	      1.67211711	      0.47456160	     -0.28747356	      1.37036502	      0.07095600	     -0.21964711	      1.49369800	      0.12822627	     -0.29546508	      1.56153548	      0.89717132	     -0.22392341	      1.54262054	      0.90781248	     -0.12606581	      1.58045042	      0.88653016	     -0.32178101	      1.40620625	      0.94165087	     -0.23725337	      1.41794765	      0.93287462	     -0.29010564	      1.41868174	      0.45996785	     -0.13538322	      1.68902731	      0.48313603	     -0.33856928	      1.40596581	      0.46403471	     -0.23468205	      1.67362547	      0.45942724	     -0.24622345	      1.35450435	      0.07019226	     -0.18457423	      1.50307274	      0.12425352	     -0.33259436	      1.39018095	      0.08336638	     -0.24530546	      1.51357460	      0.13228218	     -0.26661956	      1.47275972	      1.34510851	     -0.22471383	      1.56171143	      1.25554919	     -0.18504660	      1.56305611	      1.26076877	     -0.28790757	      1.54924965	      1.27096045	     -0.24113132	      1.57913053	      1.09864891	     -0.24848904	      1.58362246	      0.60829639	     -0.16688703	      1.71932757	      0.68155670	     -0.24445455	      1.51127362	      0.66899496	     -0.12290113	      1.65604019	      0.69527072	     -0.32168612	      1.48729086	      0.58653128	     -0.12725812	      1.69422412	      0.61715978	     -0.31413320	      1.35085642	      0.18438491	     -0.10549758	      1.53562438	      0.24019696	     -0.39805806	      1.36021721	      0.19377889	     -0.14437315	      1.54376698	      0.23999025	     -0.35573572	      1.47380459	      0.03948734	     -0.16811630	      1.60802102	      0.07306865	     -0.30074489
      0.58333000	      1.56434418	      0.88170257	     -0.21099836	     -3.64755205	     -3.69932227	    -13.12290444	     -9.82053336	      6.59854045	      3.13540150	      4.94664902	      3.98007336	     29.88000035	     -9.44689808	     -1.01980528	    -50.41202456	     13.71901603	     -6.91566585	      1.60343606	     22.84393629	      0.00000000	      0.00000000	      0.00000000	      0.00000000	      1.59152141	      0.88992576	     -0.10993961	      1.61841806	      0.86922303	     -0.30877207	      1.57507828	      0.88118026	     -0.20849847	      1.45614855	      0.94207941	     -0.21112085	      1.46322607	      0.93717541	     -0.26534786	      1.49218183	      0.83753644	     -0.15630538	      1.52147748	      0.82738191	     -0.28421779	      1.50682966	      0.83245918	     -0.22026158	      1.42794536	      0.44723348	     -0.12421969	      1.42130023	      0.45184393	     -0.23345780	      1.60332247	      0.58080877	     -0.15606652	      1.53825827	      0.64624411	     -0.11451817	      1.50833452	      0.56582525	     -0.12086968	      1.34373724	      0.06238597	     -0.18322511	      1.39071586	      0.07537426	     -0.23821229	      1.34215156	      0.17921353	     -0.10273618	      1.35641824	      0.18754791	     -0.14172385	      1.41248661	      0.47399961	     -0.18961659	      1.36544353	      0.07871245	     -0.21794590	      1.46100161	      0.03193007	     -0.14755896	      1.72198837	      0.49600854	     -0.33916234	      1.69999940	      0.47129176	     -0.23497788	      1.75092431	      0.69293064	     -0.25281871	      1.67625649	      0.70396911	     -0.32011730	      1.71397382	      0.62459514	     -0.31401452	      1.53996838	      0.11563658	     -0.36844158	      1.56207884	      0.11167573	     -0.30430740	      1.54914880	      0.24427953	     -0.41627922	      1.56427925	      0.23981509	     -0.37599128	      1.69953016	      0.49075133	     -0.28108649	      1.54666965	      0.12466028	     -0.32442867	      1.65946559	      0.06774146	     -0.37015238	      1.59050052	      1.27640251	     -0.18623189	      1.57526695	      1.27549162	     -0.29437586	      1.48134248	      1.32760088	     -0.22204072	      1.56678745	      1.28458908	     -0.24337797	      1.64728344	      1.12930161	     -0.25215045	      1.51357400	      0.84010900	     -0.23017400	      1.50297100	      0.82760900	     -0.17072500	      1.51731800	      0.81498400	     -0.28663100	      1.42241600	      0.46376600	     -0.19176800	      1.69227700	      0.47580700	     -0.28563200	      1.37155200	      0.07204900	     -0.22158100	      1.53851900	      0.11728700	     -0.29427200	      1.57626000	      0.89601000	     -0.22259300	      1.55559700	      0.90635100	     -0.12505300	      1.59692400	      0.88566900	     -0.32013300	      1.42128500	      0.94035400	     -0.23900500	      1.43369400	      0.93150000	     -0.29185800	      1.42364900	      0.46031900	     -0.13689000	      1.71038100	      0.48499600	     -0.33620900	      1.41242400	      0.46502700	     -0.23692300	      1.69291000	      0.45951700	     -0.24665400	      1.35511900	      0.07153300	     -0.18676900	      1.54843600	      0.11392600	     -0.33132100	      1.39170300	      0.08386200	     -0.24730900	      1.55819400	      0.12232500	     -0.26562800	      1.48953900	      1.34392500	     -0.22449500	      1.57844200	      1.25411800	     -0.18439400	      1.58019200	      1.25878200	     -0.28708700	      1.56617900	      1.26940800	     -0.24057700	      1.59576600	      1.09684300	     -0.24684400	      1.59250400	      0.60533900	     -0.16566400	      1.73493500	      0.68239500	     -0.24018700	      1.52043500	      0.66775000	     -0.12280700	      1.67412500	      0.69621600	     -0.31893200	      1.49440300	      0.58507700	     -0.12780800	      1.71320700	      0.61866300	     -0.31138600	      1.35169700	      0.18584400	     -0.10781400	      1.57302300	      0.23130200	     -0.39701700	      1.36204700	      0.19493100	     -0.14677300	      1.58163000	      0.23164100	     -0.35453000	      1.47415100	      0.03955700	     -0.16868000	      1.65604000	      0.06927500	     -0.29814300	      9.08399695	    298.08236447	    -32.01986056	      1.48991785	      0.00000000	     -0.16805914	      0.00000000	      0.00000000	      0.00000000	      0.92411005	      0.00000000	     -0.27857513	      0.00000000	      2.58560693	      0.00000000	      0.00000000	      0.00000000	      0.00000000	      1.51357388	      0.84010875	     -0.23017405	      1.50297058	      0.82760906	     -0.17072465	      1.51731825	      0.81498361	     -0.28663138	      1.42241645	      0.46376568	     -0.19176841	      1.69227731	      0.47580650	     -0.28563234	      1.37155223	      0.07204891	     -0.22158118	      1.53851867	      0.11728671	     -0.29427207	      1.57626045	      0.89600980	     -0.22259280	      1.55559731	      0.90635079	     -0.12505268	      1.59692359	      0.88566881	     -0.32013291	      1.42128456	      0.94035381	     -0.23900530	      1.43369448	      0.93150008	     -0.29185757	      1.42364872	      0.46031883	     -0.13689035	      1.71038139	      0.48499620	     -0.33620948	      1.41242373	      0.46502742	     -0.23692335	      1.69291008	      0.45951712	     -0.24665378	      1.35511863	      0.07153329	     -0.18676855	      1.54843557	      0.11392646	     -0.33132085	      1.39170349	      0.08386175	     -0.24730907	      1.55819440	      0.12232450	     -0.26562810	      1.48953927	      1.34392452	     -0.22449465	      1.57844198	      1.25411844	     -0.18439420	      1.58019185	      1.25878179	     -0.28708714	      1.56617916	      1.26940775	     -0.24057670	      1.59576643	      1.09684324	     -0.24684404	      1.59250438	      0.60533887	     -0.16566439	      1.73493457	      0.68239474	     -0.24018729	      1.52043462	      0.66775000	     -0.12280670	      1.67412531	      0.69621563	     -0.31893179	      1.49440300	      0.58507669	     -0.12780757	      1.71320653	      0.61866301	     -0.31138578	      1.35169673	      0.18584439	     -0.10781378	      1.57302320	      0.23130244	     -0.39701742	      1.36204743	      0.19493118	     -0.14677253	      1.58163035	      0.23164074	     -0.35452992	      1.47415102	      0.03955702	     -0.16868024	      1.65604043	      0.06927533	     -0.29814285
